<svg width="24" height="25" viewBox="0 0 24 25" fill="none" xmlns="http://www.w3.org/2000/svg">
<path d="M12 15.4272C13.6569 15.4272 15 14.0841 15 12.4272C15 10.7704 13.6569 9.42725 12 9.42725C10.3431 9.42725 9 10.7704 9 12.4272C9 14.0841 10.3431 15.4272 12 15.4272Z" fill="black"/>
<path d="M23.0081 11.6116C21.7678 9.6935 20.1586 8.06412 18.3548 6.89928C16.3593 5.60928 14.1562 4.92725 11.984 4.92725C9.9909 4.92725 8.03105 5.49678 6.15886 6.6199C4.24965 7.76506 2.51996 9.43803 1.01761 11.5919C0.848014 11.8354 0.754608 12.1237 0.749266 12.4203C0.743924 12.717 0.826888 13.0085 0.987615 13.2579C2.22558 15.1952 3.81886 16.8269 5.59449 17.9758C7.59371 19.271 9.74527 19.9272 11.984 19.9272C14.1736 19.9272 16.3814 19.2508 18.3684 17.9716C20.1712 16.8105 21.7771 15.1751 23.0128 13.241C23.168 12.9974 23.25 12.7144 23.2492 12.4256C23.2483 12.1368 23.1647 11.8543 23.0081 11.6116ZM12 16.9272C11.1099 16.9272 10.2399 16.6633 9.49989 16.1689C8.75987 15.6744 8.18309 14.9716 7.8425 14.1493C7.50191 13.3271 7.41279 12.4223 7.58642 11.5493C7.76006 10.6764 8.18864 9.8746 8.81798 9.24527C9.44731 8.61593 10.2491 8.18735 11.1221 8.01371C11.995 7.84008 12.8998 7.92919 13.722 8.26979C14.5443 8.61038 15.2471 9.18716 15.7416 9.92718C16.236 10.6672 16.5 11.5372 16.5 12.4272C16.4986 13.6203 16.024 14.7641 15.1804 15.6077C14.3368 16.4513 13.193 16.9259 12 16.9272Z" fill="black"/>
</svg>
