<svg width="25" height="25" viewBox="0 0 25 25" fill="none" xmlns="http://www.w3.org/2000/svg">
<g clip-path="url(#clip0_210_11636)">
<path d="M21.0313 21.9272C20.9328 21.9274 20.8353 21.908 20.7443 21.8703C20.6533 21.8326 20.5707 21.7772 20.5012 21.7074L4.00119 5.20737C3.86647 5.06558 3.79248 4.87677 3.79498 4.68119C3.79749 4.48562 3.87629 4.29877 4.01459 4.16047C4.15289 4.02216 4.33975 3.94336 4.53532 3.94086C4.73089 3.93835 4.9197 4.01235 5.0615 4.14706L21.5615 20.6471C21.6663 20.752 21.7377 20.8856 21.7666 21.031C21.7955 21.1764 21.7807 21.3272 21.7239 21.4642C21.6672 21.6012 21.5711 21.7183 21.4478 21.8007C21.3246 21.8831 21.1796 21.9272 21.0313 21.9272ZM12.4063 15.7327L9.97869 13.305C9.96478 13.2912 9.9469 13.2821 9.92755 13.279C9.90821 13.2759 9.88838 13.279 9.87085 13.2877C9.85331 13.2964 9.83896 13.3105 9.8298 13.3278C9.82064 13.3451 9.81714 13.3648 9.81978 13.3842C9.91779 14.0141 10.2135 14.5964 10.6642 15.0471C11.1149 15.4979 11.6973 15.7936 12.3271 15.8916C12.3465 15.8942 12.3663 15.8907 12.3836 15.8816C12.4009 15.8724 12.4149 15.8581 12.4237 15.8405C12.4324 15.823 12.4354 15.8032 12.4323 15.7838C12.4292 15.7645 12.4201 15.7466 12.4063 15.7327ZM13.1563 10.1217L15.5878 12.5522C15.6016 12.5662 15.6196 12.5755 15.639 12.5787C15.6584 12.5819 15.6784 12.5789 15.696 12.5701C15.7137 12.5614 15.7281 12.5473 15.7373 12.5298C15.7465 12.5124 15.7499 12.4925 15.7471 12.473C15.6494 11.8423 15.3534 11.2591 14.9021 10.8078C14.4509 10.3565 13.8677 10.0606 13.237 9.96284C13.2174 9.95983 13.1975 9.96307 13.1799 9.97209C13.1623 9.98111 13.148 9.99546 13.1391 10.0131C13.1301 10.0307 13.127 10.0507 13.1301 10.0702C13.1332 10.0897 13.1424 10.1078 13.1563 10.1217Z" fill="black"/>
<path d="M23.7969 13.741C23.9521 13.4974 24.0341 13.2144 24.0333 12.9256C24.0324 12.6368 23.9488 12.3543 23.7922 12.1116C22.5519 10.1935 20.9427 8.56412 19.1389 7.39928C17.1406 6.10928 14.9375 5.42725 12.7662 5.42725C11.6216 5.42882 10.4848 5.61544 9.39968 5.9799C9.36932 5.99 9.34204 6.00771 9.32045 6.03134C9.29886 6.05496 9.28367 6.08372 9.27634 6.11487C9.26901 6.14603 9.26978 6.17854 9.27857 6.20931C9.28736 6.24009 9.30388 6.2681 9.32656 6.29068L11.5409 8.50506C11.5639 8.5281 11.5925 8.54476 11.6239 8.55339C11.6553 8.56202 11.6884 8.56233 11.72 8.55428C12.4706 8.37136 13.2556 8.38477 13.9995 8.5932C14.7434 8.80163 15.4212 9.19807 15.9674 9.74435C16.5137 10.2906 16.9101 10.9683 17.1186 11.7122C17.327 12.4562 17.3404 13.2412 17.1575 13.9918C17.1495 14.0233 17.1499 14.0563 17.1585 14.0876C17.1671 14.1189 17.1837 14.1474 17.2067 14.1704L20.3919 17.3579C20.425 17.3911 20.4694 17.4106 20.5162 17.4127C20.5631 17.4148 20.609 17.3992 20.645 17.3691C21.8711 16.3241 22.9335 15.1011 23.7969 13.741ZM12.7812 17.4272C12.1 17.4273 11.4277 17.2727 10.8149 16.975C10.2022 16.6774 9.665 16.2446 9.24388 15.7091C8.82276 15.1737 8.5287 14.5496 8.38387 13.884C8.23904 13.2183 8.24723 12.5285 8.40781 11.8665C8.41577 11.835 8.41542 11.802 8.4068 11.7707C8.39817 11.7394 8.38156 11.7108 8.35859 11.6879L5.22547 8.55334C5.19224 8.52008 5.14774 8.50051 5.10077 8.49851C5.0538 8.49652 5.0078 8.51224 4.97187 8.54256C3.82859 9.51803 2.76875 10.7049 1.79984 12.0919C1.63024 12.3354 1.53683 12.6237 1.53149 12.9203C1.52615 13.217 1.60911 13.5085 1.76984 13.7579C3.00781 15.6952 4.60062 17.3269 6.37672 18.4758C8.37781 19.771 10.5275 20.4272 12.7662 20.4272C13.9224 20.4241 15.0711 20.2415 16.1712 19.8858C16.2019 19.8761 16.2295 19.8585 16.2514 19.835C16.2733 19.8115 16.2888 19.7827 16.2964 19.7514C16.304 19.7202 16.3034 19.6875 16.2947 19.6565C16.286 19.6255 16.2695 19.5973 16.2467 19.5746L14.0216 17.3499C13.9986 17.3269 13.9701 17.3103 13.9388 17.3017C13.9075 17.2931 13.8744 17.2927 13.843 17.3007C13.4953 17.3849 13.1389 17.4274 12.7812 17.4272Z" fill="black"/>
</g>
<defs>
<clipPath id="clip0_210_11636">
<rect width="24" height="24" fill="white" transform="translate(0.78125 0.927246)"/>
</clipPath>
</defs>
</svg>
